<svg width="23" height="22" viewBox="0 0 23 22" fill="none" xmlns="http://www.w3.org/2000/svg">
    <path d="M22.2031 16.5156C22.2031 16.7435 22.1315 16.9225 21.9883 17.0527C21.8516 17.1829 21.6628 17.248 21.4219 17.248H6.25586C6.02148 17.248 5.83268 17.1797 5.68945 17.043C5.55273 16.8997 5.48438 16.7109 5.48438 16.4766V1.4082C5.48438 1.16732 5.55599 0.972005 5.69922 0.822266C5.84245 0.666016 6.03125 0.587891 6.26562 0.587891C6.50651 0.587891 6.69857 0.666016 6.8418 0.822266C6.98503 0.972005 7.05664 1.16732 7.05664 1.4082V15.4902C7.05664 15.679 7.15104 15.7734 7.33984 15.7734H21.4219C21.6628 15.7734 21.8516 15.8385 21.9883 15.9688C22.1315 16.099 22.2031 16.2812 22.2031 16.5156ZM0.787109 6.01758C0.787109 5.79622 0.855469 5.62044 0.992188 5.49023C1.13542 5.35352 1.32422 5.28516 1.55859 5.28516H16.7344C16.9688 5.28516 17.1543 5.35677 17.291 5.5C17.4342 5.64323 17.5059 5.83203 17.5059 6.06641V21.125C17.5059 21.3724 17.4342 21.571 17.291 21.7207C17.1478 21.8704 16.9557 21.9453 16.7148 21.9453C16.4805 21.9453 16.2917 21.8704 16.1484 21.7207C16.0052 21.571 15.9336 21.3724 15.9336 21.125V7.04297C15.9336 6.85417 15.8392 6.75977 15.6504 6.75977H1.55859C1.32422 6.75977 1.13542 6.69466 0.992188 6.56445C0.855469 6.43424 0.787109 6.25195 0.787109 6.01758Z" fill="currentColor"/>
</svg>
