<svg width="20" height="22" viewBox="0 0 20 22" fill="none" xmlns="http://www.w3.org/2000/svg">
    <path d="M2.65625 21.9531C1.82292 21.9531 1.19466 21.748 0.771484 21.3379C0.354818 20.9277 0.146484 20.2962 0.146484 19.4434V9.78516C0.146484 8.93229 0.354818 8.30078 0.771484 7.89062C1.19466 7.48047 1.82292 7.27539 2.65625 7.27539H12.334C13.1738 7.27539 13.8021 7.48047 14.2188 7.89062C14.6354 8.30078 14.8438 8.93229 14.8438 9.78516V19.4434C14.8438 20.2962 14.6354 20.9277 14.2188 21.3379C13.8021 21.748 13.1738 21.9531 12.334 21.9531H2.65625ZM2.68555 20.3809H12.3047C12.6432 20.3809 12.8874 20.306 13.0371 20.1562C13.1934 20.0065 13.2715 19.7624 13.2715 19.4238V9.81445C13.2715 9.4694 13.1934 9.22201 13.0371 9.07227C12.8874 8.92253 12.6432 8.84766 12.3047 8.84766H2.68555C2.35352 8.84766 2.10938 8.92253 1.95312 9.07227C1.79688 9.22201 1.71875 9.4694 1.71875 9.81445V19.4238C1.71875 19.7624 1.79688 20.0065 1.95312 20.1562C2.10938 20.306 2.35352 20.3809 2.68555 20.3809ZM19.1016 9.14062C18.9388 9.14062 18.7956 9.08203 18.6719 8.96484C18.5547 8.84115 18.4961 8.69792 18.4961 8.53516V7.08008C18.4961 6.38346 18.3529 5.76823 18.0664 5.23438C17.7865 4.70052 17.3861 4.28385 16.8652 3.98438C16.3509 3.67839 15.7422 3.52539 15.0391 3.52539H14.8438V4.7168C14.8438 5.06836 14.7298 5.28646 14.502 5.37109C14.2741 5.44922 14.0234 5.38737 13.75 5.18555L11.2891 3.38867C11.0807 3.23893 10.9766 3.08268 10.9766 2.91992C10.9831 2.75065 11.0872 2.58789 11.2891 2.43164L13.75 0.625C14.0234 0.423177 14.2741 0.364583 14.502 0.449219C14.7298 0.527344 14.8438 0.745443 14.8438 1.10352V2.39258H15.0488C15.9798 2.39258 16.7969 2.58789 17.5 2.97852C18.2031 3.36914 18.7467 3.91602 19.1309 4.61914C19.5215 5.32227 19.7168 6.13932 19.7168 7.07031V8.53516C19.7168 8.69792 19.6549 8.84115 19.5312 8.96484C19.4141 9.08203 19.2708 9.14062 19.1016 9.14062Z" fill="currentColor"/>
</svg>
