<svg width="19" height="18" viewBox="0 0 19 18" fill="none" xmlns="http://www.w3.org/2000/svg">
    <path d="M16.2578 2.02197C17.0807 2.02197 17.6953 2.2251 18.1016 2.63135C18.5078 3.0376 18.7109 3.64176 18.7109 4.44385V13.9907C18.7109 14.7355 18.5208 15.298 18.1406 15.6782L17.1406 14.686C17.349 14.5298 17.4531 14.2746 17.4531 13.9204V4.51416C17.4531 4.10791 17.3464 3.80062 17.1328 3.59229C16.9245 3.38395 16.6276 3.27979 16.2422 3.27979H5.73438L4.47656 2.02197H16.2578ZM2.74219 16.4048C1.92448 16.4048 1.3099 16.2017 0.898438 15.7954C0.492188 15.3944 0.289062 14.7928 0.289062 13.9907V4.44385C0.289062 3.67822 0.489583 3.10791 0.890625 2.73291L1.875 3.71729C1.65625 3.87874 1.54688 4.14437 1.54688 4.51416V13.9204C1.54688 14.3267 1.65104 14.634 1.85938 14.8423C2.06771 15.0454 2.36719 15.147 2.75781 15.147H13.3281L14.5859 16.4048H2.74219ZM16.9609 17.4985L1.24219 1.79541C1.1276 1.68083 1.07031 1.5376 1.07031 1.36572C1.07031 1.19385 1.1276 1.05322 1.24219 0.943848C1.36198 0.824056 1.50521 0.76416 1.67188 0.76416C1.83854 0.76416 1.98177 0.824056 2.10156 0.943848L17.8125 16.647C17.9323 16.7668 17.9922 16.9074 17.9922 17.0688C17.9922 17.2355 17.9323 17.3787 17.8125 17.4985C17.6979 17.6183 17.5573 17.6782 17.3906 17.6782C17.224 17.6782 17.0807 17.6183 16.9609 17.4985Z" fill="currentColor"/>
</svg>
