<svg width="20" height="20" viewBox="0 0 20 20" fill="none" xmlns="http://www.w3.org/2000/svg">
    <path d="M0.458984 8.11328C0.458984 7.03906 0.660807 6.0332 1.06445 5.0957C1.4681 4.15169 2.02799 3.32161 2.74414 2.60547C3.46029 1.88932 4.28711 1.32943 5.22461 0.925781C6.16862 0.522135 7.17773 0.320312 8.25195 0.320312C9.32617 0.320312 10.332 0.522135 11.2695 0.925781C12.2135 1.32943 13.0436 1.88932 13.7598 2.60547C14.4759 3.32161 15.0358 4.15169 15.4395 5.0957C15.8431 6.0332 16.0449 7.03906 16.0449 8.11328C16.0449 9.00521 15.9017 9.85156 15.6152 10.6523C15.3353 11.4531 14.9447 12.179 14.4434 12.8301L19.2188 17.6348C19.3229 17.7389 19.401 17.8594 19.4531 17.9961C19.5117 18.1328 19.541 18.2793 19.541 18.4355C19.541 18.6504 19.4922 18.8457 19.3945 19.0215C19.3034 19.1973 19.1732 19.334 19.0039 19.4316C18.8346 19.5358 18.6393 19.5879 18.418 19.5879C18.2617 19.5879 18.112 19.5586 17.9688 19.5C17.832 19.4479 17.7051 19.3665 17.5879 19.2559L12.7832 14.4414C12.1452 14.8971 11.4421 15.2552 10.6738 15.5156C9.9056 15.776 9.09831 15.9062 8.25195 15.9062C7.17773 15.9062 6.16862 15.7044 5.22461 15.3008C4.28711 14.8971 3.46029 14.3372 2.74414 13.6211C2.02799 12.9049 1.4681 12.0781 1.06445 11.1406C0.660807 10.1966 0.458984 9.1875 0.458984 8.11328ZM2.12891 8.11328C2.12891 8.95964 2.28516 9.75391 2.59766 10.4961C2.91667 11.2318 3.35612 11.8796 3.91602 12.4395C4.48242 12.9993 5.13346 13.4388 5.86914 13.7578C6.61133 14.0768 7.4056 14.2363 8.25195 14.2363C9.09831 14.2363 9.88932 14.0768 10.625 13.7578C11.3672 13.4388 12.0182 12.9993 12.5781 12.4395C13.138 11.8796 13.5775 11.2318 13.8965 10.4961C14.2155 9.75391 14.375 8.95964 14.375 8.11328C14.375 7.26693 14.2155 6.47591 13.8965 5.74023C13.5775 4.99805 13.138 4.34701 12.5781 3.78711C12.0182 3.2207 11.3672 2.78125 10.625 2.46875C9.88932 2.14974 9.09831 1.99023 8.25195 1.99023C7.4056 1.99023 6.61133 2.14974 5.86914 2.46875C5.13346 2.78125 4.48242 3.2207 3.91602 3.78711C3.35612 4.34701 2.91667 4.99805 2.59766 5.74023C2.28516 6.47591 2.12891 7.26693 2.12891 8.11328ZM5.73242 8.82617C5.53711 8.82617 5.36784 8.75781 5.22461 8.62109C5.08789 8.47786 5.01953 8.30859 5.01953 8.11328C5.01953 7.91797 5.08789 7.7487 5.22461 7.60547C5.36784 7.46224 5.53711 7.39062 5.73242 7.39062H10.7617C10.957 7.39062 11.123 7.46224 11.2598 7.60547C11.403 7.7487 11.4746 7.91797 11.4746 8.11328C11.4746 8.30859 11.403 8.47786 11.2598 8.62109C11.123 8.75781 10.957 8.82617 10.7617 8.82617H5.73242Z" fill="currentColor"/>
</svg>
